<?xml version="1.0" encoding="utf-8"?>
<!-- Generator: Adobe Illustrator 21.0.0, SVG Export Plug-In . SVG Version: 6.00 Build 0)  -->
<svg version="1.1" id="Layer_1" xmlns="http://www.w3.org/2000/svg" xmlns:xlink="http://www.w3.org/1999/xlink" x="0px" y="0px"
	 viewBox="0 0 220 102" style="enable-background:new 0 0 220 102;" xml:space="preserve">
<style type="text/css">
	.st0{enable-background:new    ;}
	.st1{fill:#2D5F73;}
</style>
<g class="st0">
	<path class="st1" d="M25.4,48.1c14.5-3,6.4-19.8,13.8-32.3c0.1-0.3,0.7-1,1.6-1c1.9,0,4.4,1.1,4.4,2.3c0,0.3-0.1,0.6-0.6,0.8
		c-6.2,9.4-0.6,27.4-13.9,33.3c10.6,5.6,9.1,19.3,16,27c0.4,0.4,1.4,0.4,1.4,1c0,1.4-3.9,3.9-5.1,3.9c-0.4,0-0.7-0.1-1-0.4
		c-8.4-10.5-4.9-24.9-16.6-28.2v16.9c0,1.3-1,1.7-2.1,1.7c-1.7,0-3.8-1-3.8-2.2V24.4c-6.7,0.8-12.3,5.8-12.3,15.3c0,6,3,9.8,4,9.8
		c0.5,0,0.8-0.3,1.2-0.3s0.6,0.4,0.6,0.9c0,3.1-3.2,6.1-5.4,4.5C5,52.8,1.4,47.2,1.4,39.7c0-15.9,12.2-21.1,21.1-21.1
		c1.6,0,3,1.4,3,3.2V48.1z"/>
	<path class="st1" d="M53,63.5c1.1,2.5,3.1,4.7,7,4.7c5.8,0,8.2-4.9,9.1-9.5c0.7-3.4,4.9-1.9,4.6,0.8c-0.5,4.6-3.5,13.6-14.5,13.6
		c-6.8,0-13.3-5.5-13.3-14.8c0-9.5,5.7-16.6,11.5-16.6c4.2,0,6.7,3.1,6.7,7.6C64.1,54.7,60.3,61.3,53,63.5z M52.1,59.4
		c3.8-1.7,6.1-5.6,6.1-10.1c0-1.7-0.6-2.6-1.6-2.6c-3.7,0-4.8,8.3-4.6,11.4C52.1,58.5,52.1,58.9,52.1,59.4z"/>
	<path class="st1" d="M70,46c0-1.4-0.3-1.9-0.3-2.4c0-0.8,0.9-1.3,2-1.3c2.5,0,4,1.5,4,3.3V49c2-4.2,4.7-7.4,8.4-7.4
		c5,0,6.2,4.1,6.2,7.6v15.5c0,0.7,0,3.5,1.9,3.5c3,0,4.4-4.8,5-8.1c0.3-1.6,1-2.3,1.8-2.3c1.2,0,2.6,1.6,2.6,3.1
		c0,0.1,0,0.2-0.1,0.5c-1.3,5-4.3,11.7-10.7,11.7c-4,0-6.3-3.2-6.3-7V50.8c0-2.3-0.2-4.3-1.6-4.3c-2.2,0-6.8,6.5-7.3,12.4v10.9
		c0,1.4,0.1,3.2-2.1,3.2c-1.5,0-3.6-0.5-3.6-3.3V46z"/>
	<path class="st1" d="M96.9,58.9c0-8.6,5.1-17.3,12.2-17.3c5.2,0,7.1,4.7,7.1,7.3c0,2.8-5.2,4.3-4.7,1.7c-0.4-1.3-0.5-4-3.1-4
		c-2.8,0-5.4,5.5-5.4,12.3c0,5.9,3.2,9.2,7.6,9.2c5.8,0,8.5-4.9,9.4-9.5c0.7-3.4,4.9-1.9,4.6,0.8c-0.5,4.6-3.8,13.6-14.8,13.6
		C103.2,73.1,96.9,68.2,96.9,58.9z"/>
	<path class="st1" d="M141.7,61.5c-1.3,4-5,11.6-11.8,11.6c-5.8,0-8.8-4-8.8-9.9V29.1c0-5.6,3.1-9.6,6.8-9.6c6.6,0,6.7,7.9,6.7,12.1
		c0,11-6.8,26.2-7.8,27.1V63c0,3,1.2,5.2,4,5.2c3.5,0,6-4.7,6.7-8C138.2,55.7,142.3,59.1,141.7,61.5z M126.7,48.8
		c1.6-3.1,3.2-13,3.2-17.2c0-5-0.8-7.2-2-7.2c-0.8,0-1.1,1.8-1.1,3V48.8z"/>
	<path class="st1" d="M144.4,63.5c1,2.5,3.1,4.7,7,4.7c5.8,0,8.2-4.9,9.1-9.5c0.7-3.4,4.9-1.9,4.6,0.8c-0.5,4.6-3.5,13.6-14.5,13.6
		c-6.8,0-13.3-5.5-13.3-14.8c0-9.5,5.7-16.6,11.5-16.6c4.2,0,6.7,3.1,6.7,7.6C155.5,54.7,151.7,61.3,144.4,63.5z M143.5,59.4
		c3.8-1.7,6.1-5.6,6.1-10.1c0-1.7-0.6-2.6-1.6-2.6c-3.7,0-4.8,8.3-4.6,11.4C143.5,58.5,143.5,58.9,143.5,59.4z"/>
	<path class="st1" d="M161.4,46c0-1.4-0.3-1.9-0.3-2.4c0-0.8,0.9-1.3,2-1.3c2.5,0,4,1.5,4,3.3V49c2-4.2,4.7-7.4,8.4-7.4
		c5,0,6.2,4.1,6.2,7.6v15.5c0,0.7,0,3.5,1.9,3.5c3,0,4.4-4.8,5-8.1c0.3-1.6,1-2.3,1.8-2.3c1.2,0,2.6,1.6,2.6,3.1
		c0,0.1,0,0.2-0.1,0.5c-1.3,5-4.3,11.7-10.7,11.7c-4,0-6.3-3.2-6.3-7V50.8c0-2.3-0.2-4.3-1.6-4.3c-2.2,0-6.8,6.5-7.3,12.4v10.9
		c0,1.4,0.1,3.2-2.1,3.2c-1.5,0-3.6-0.5-3.6-3.3V46z"/>
	<path class="st1" d="M203.1,77.5v-7.9c-1.5,1.5-3.5,2.7-6.2,2.7c-5.8,0-8.9-4.9-8.9-11.3c0-12.5,8.7-20.2,17.8-20.2
		c2,0,3.5,1.2,3.5,3.1c0,1.3-0.2,1.7-1,1.7c-0.7,0-1.4-0.1-2.2-0.1c-5.7,0-12.4,4.9-12.4,15.7c0,3.9,1.7,6.2,4.3,6.2c3,0,4.5-4,5-7
		V52c0-1.4-0.3-1.9-0.3-2.4c0-0.8,0.9-1.3,2-1.3c2.5,0,4,1.5,4,3.3V72c2.7-3,5.1-6.7,6.6-11.9c0.5-1.6,1.1-2.3,1.8-2.3
		c1.2,0,2.6,1.6,2.6,3.1c0,0.1,0,0.5-0.1,0.8c-2.5,8.7-6.9,13.1-10.9,16.6v13c0,7.9-4,10.6-7.8,10.6c-4.2,0-7.2-3.8-7.2-8.6
		C193.8,85.7,198.1,81.9,203.1,77.5z M203.1,91.2v-8c-2.4,2.5-4.1,5.3-4.1,9.8c0,2.3,0.8,4.1,2,4.1
		C203.4,97.2,203.1,92.7,203.1,91.2z"/>
</g>
</svg>
